<mxfile host="app.diagrams.net" agent="Mozilla/5.0 (Macintosh; Intel Mac OS X 10_15_7) AppleWebKit/537.36 (KHTML, like Gecko) Chrome/127.0.0.0 Safari/537.36" version="24.7.6">
  <diagram name="第 1 页" id="hkiS7akkz8xl4uqmDJ8C">
    <mxGraphModel dx="1306" dy="981" grid="0" gridSize="10" guides="1" tooltips="1" connect="1" arrows="1" fold="1" page="1" pageScale="1" pageWidth="827" pageHeight="1169" background="#000000" math="0" shadow="0">
      <root>
        <mxCell id="0" />
        <mxCell id="1" parent="0" />
        <mxCell id="HsaPHBdeyG-jnKCgwa2D-12" style="edgeStyle=orthogonalEdgeStyle;rounded=0;orthogonalLoop=1;jettySize=auto;html=1;exitX=0.25;exitY=0;exitDx=0;exitDy=0;entryX=1;entryY=0.5;entryDx=0;entryDy=0;strokeWidth=2;flowAnimation=1;fillColor=#ffe6cc;strokeColor=#d79b00;fontColor=#000000;" edge="1" parent="1" source="HsaPHBdeyG-jnKCgwa2D-1" target="HsaPHBdeyG-jnKCgwa2D-11">
          <mxGeometry relative="1" as="geometry">
            <Array as="points">
              <mxPoint x="350" y="310" />
              <mxPoint x="350" y="50" />
            </Array>
          </mxGeometry>
        </mxCell>
        <mxCell id="HsaPHBdeyG-jnKCgwa2D-25" style="edgeStyle=orthogonalEdgeStyle;rounded=0;orthogonalLoop=1;jettySize=auto;html=1;exitX=0.5;exitY=0;exitDx=0;exitDy=0;entryX=0;entryY=0.5;entryDx=0;entryDy=0;strokeWidth=2;fillColor=#f8cecc;strokeColor=#b85450;flowAnimation=1;fontColor=#000000;" edge="1" parent="1" source="HsaPHBdeyG-jnKCgwa2D-1" target="HsaPHBdeyG-jnKCgwa2D-24">
          <mxGeometry relative="1" as="geometry" />
        </mxCell>
        <mxCell id="HsaPHBdeyG-jnKCgwa2D-52" style="edgeStyle=orthogonalEdgeStyle;rounded=0;orthogonalLoop=1;jettySize=auto;html=1;exitX=0.75;exitY=0;exitDx=0;exitDy=0;entryX=0;entryY=0.5;entryDx=0;entryDy=0;fillColor=#dae8fc;strokeColor=#6c8ebf;strokeWidth=2;flowAnimation=1;fontColor=#000000;" edge="1" parent="1" source="HsaPHBdeyG-jnKCgwa2D-1" target="HsaPHBdeyG-jnKCgwa2D-51">
          <mxGeometry relative="1" as="geometry">
            <Array as="points">
              <mxPoint x="396" y="370" />
              <mxPoint x="396" y="190" />
            </Array>
          </mxGeometry>
        </mxCell>
        <mxCell id="HsaPHBdeyG-jnKCgwa2D-69" style="edgeStyle=orthogonalEdgeStyle;rounded=0;orthogonalLoop=1;jettySize=auto;html=1;exitX=1;exitY=0.5;exitDx=0;exitDy=0;fillColor=#d5e8d4;strokeColor=#82b366;strokeWidth=2;flowAnimation=1;fontColor=#000000;" edge="1" parent="1" source="HsaPHBdeyG-jnKCgwa2D-1" target="HsaPHBdeyG-jnKCgwa2D-68">
          <mxGeometry relative="1" as="geometry" />
        </mxCell>
        <mxCell id="HsaPHBdeyG-jnKCgwa2D-79" style="edgeStyle=orthogonalEdgeStyle;rounded=0;orthogonalLoop=1;jettySize=auto;html=1;exitX=1;exitY=0.75;exitDx=0;exitDy=0;entryX=0;entryY=0.5;entryDx=0;entryDy=0;strokeWidth=2;strokeColor=#feff88;fillColor=#ffff88;flowAnimation=1;" edge="1" parent="1" source="HsaPHBdeyG-jnKCgwa2D-1" target="HsaPHBdeyG-jnKCgwa2D-72">
          <mxGeometry relative="1" as="geometry">
            <Array as="points">
              <mxPoint x="438" y="415" />
              <mxPoint x="438" y="460" />
            </Array>
          </mxGeometry>
        </mxCell>
        <mxCell id="HsaPHBdeyG-jnKCgwa2D-81" style="edgeStyle=orthogonalEdgeStyle;rounded=0;orthogonalLoop=1;jettySize=auto;html=1;exitX=0.75;exitY=1;exitDx=0;exitDy=0;entryX=0;entryY=0.5;entryDx=0;entryDy=0;fillColor=#cdeb8b;strokeColor=#cdeb8b;strokeWidth=2;flowAnimation=1;" edge="1" parent="1" source="HsaPHBdeyG-jnKCgwa2D-1" target="HsaPHBdeyG-jnKCgwa2D-80">
          <mxGeometry relative="1" as="geometry" />
        </mxCell>
        <mxCell id="HsaPHBdeyG-jnKCgwa2D-91" style="edgeStyle=orthogonalEdgeStyle;rounded=0;orthogonalLoop=1;jettySize=auto;html=1;exitX=0.5;exitY=1;exitDx=0;exitDy=0;entryX=0.5;entryY=0;entryDx=0;entryDy=0;fillColor=#e6d0de;gradientColor=#d5739d;strokeColor=#996185;strokeWidth=2;flowAnimation=1;" edge="1" parent="1" source="HsaPHBdeyG-jnKCgwa2D-1" target="HsaPHBdeyG-jnKCgwa2D-90">
          <mxGeometry relative="1" as="geometry">
            <Array as="points">
              <mxPoint x="399" y="430" />
              <mxPoint x="399" y="551" />
              <mxPoint x="583" y="551" />
            </Array>
          </mxGeometry>
        </mxCell>
        <mxCell id="HsaPHBdeyG-jnKCgwa2D-103" style="edgeStyle=orthogonalEdgeStyle;rounded=0;orthogonalLoop=1;jettySize=auto;html=1;exitX=0;exitY=0.25;exitDx=0;exitDy=0;fillColor=#ffcd28;gradientColor=#ffa500;strokeColor=#d79b00;strokeWidth=2;flowAnimation=1;" edge="1" parent="1" source="HsaPHBdeyG-jnKCgwa2D-1">
          <mxGeometry relative="1" as="geometry">
            <mxPoint x="271" y="334" as="targetPoint" />
            <Array as="points">
              <mxPoint x="332" y="385" />
              <mxPoint x="332" y="296" />
              <mxPoint x="271" y="296" />
            </Array>
          </mxGeometry>
        </mxCell>
        <mxCell id="HsaPHBdeyG-jnKCgwa2D-115" style="edgeStyle=orthogonalEdgeStyle;rounded=0;orthogonalLoop=1;jettySize=auto;html=1;exitX=0;exitY=0.5;exitDx=0;exitDy=0;entryX=0.5;entryY=0;entryDx=0;entryDy=0;fillColor=#b0e3e6;strokeColor=#0e8088;strokeWidth=2;flowAnimation=1;" edge="1" parent="1" source="HsaPHBdeyG-jnKCgwa2D-1" target="HsaPHBdeyG-jnKCgwa2D-114">
          <mxGeometry relative="1" as="geometry" />
        </mxCell>
        <mxCell id="HsaPHBdeyG-jnKCgwa2D-1" value="SQL" style="rounded=1;whiteSpace=wrap;html=1;fillColor=#e51400;fontColor=#ffffff;strokeColor=none;fontSize=45;glass=1;shadow=1;gradientColor=none;" vertex="1" parent="1">
          <mxGeometry x="320" y="370" width="120" height="60" as="geometry" />
        </mxCell>
        <mxCell id="HsaPHBdeyG-jnKCgwa2D-132" style="edgeStyle=orthogonalEdgeStyle;rounded=0;orthogonalLoop=1;jettySize=auto;html=1;exitX=0.5;exitY=1;exitDx=0;exitDy=0;entryX=0.5;entryY=0;entryDx=0;entryDy=0;fillColor=#fff2cc;gradientColor=#ffd966;strokeColor=#d6b656;strokeWidth=2;flowAnimation=1;" edge="1" parent="1" source="HsaPHBdeyG-jnKCgwa2D-1" target="HsaPHBdeyG-jnKCgwa2D-125">
          <mxGeometry relative="1" as="geometry">
            <Array as="points">
              <mxPoint x="374" y="430" />
            </Array>
          </mxGeometry>
        </mxCell>
        <mxCell id="HsaPHBdeyG-jnKCgwa2D-2" value="OVER()" style="rounded=1;whiteSpace=wrap;html=1;glass=1;fontSize=14;" vertex="1" parent="1">
          <mxGeometry x="150" y="80" width="120" height="20" as="geometry" />
        </mxCell>
        <mxCell id="HsaPHBdeyG-jnKCgwa2D-3" value="ROW_NUMBER()" style="rounded=1;whiteSpace=wrap;html=1;glass=1;fillColor=#ffe6cc;strokeColor=none;fontSize=14;fontColor=#000000;" vertex="1" parent="1">
          <mxGeometry x="150" y="110" width="120" height="20" as="geometry" />
        </mxCell>
        <mxCell id="HsaPHBdeyG-jnKCgwa2D-4" value="RANK()" style="rounded=1;whiteSpace=wrap;html=1;glass=1;fillColor=#ffe6cc;strokeColor=none;fontSize=14;fontColor=#000000;" vertex="1" parent="1">
          <mxGeometry x="150" y="140" width="120" height="20" as="geometry" />
        </mxCell>
        <mxCell id="HsaPHBdeyG-jnKCgwa2D-6" value="ALG&lt;span style=&quot;background-color: initial; font-size: 14px;&quot;&gt;()&lt;/span&gt;" style="rounded=1;whiteSpace=wrap;html=1;glass=1;fillColor=#ffe6cc;strokeColor=none;fontSize=14;fontColor=#000000;" vertex="1" parent="1">
          <mxGeometry x="150" y="170" width="120" height="20" as="geometry" />
        </mxCell>
        <mxCell id="HsaPHBdeyG-jnKCgwa2D-7" value="LEAD()" style="rounded=1;whiteSpace=wrap;html=1;glass=1;fillColor=#ffe6cc;strokeColor=none;fontSize=14;fontColor=#000000;" vertex="1" parent="1">
          <mxGeometry x="150" y="200" width="120" height="20" as="geometry" />
        </mxCell>
        <mxCell id="HsaPHBdeyG-jnKCgwa2D-8" value="NTLE()" style="rounded=1;whiteSpace=wrap;html=1;glass=1;fillColor=#ffe6cc;strokeColor=none;fontSize=14;fontColor=#000000;" vertex="1" parent="1">
          <mxGeometry x="150" y="230" width="120" height="20" as="geometry" />
        </mxCell>
        <mxCell id="HsaPHBdeyG-jnKCgwa2D-14" style="edgeStyle=orthogonalEdgeStyle;rounded=0;orthogonalLoop=1;jettySize=auto;html=1;exitX=1;exitY=0.5;exitDx=0;exitDy=0;endArrow=none;endFill=0;fillColor=#ffe6cc;strokeColor=#d79b00;strokeWidth=2;flowAnimation=1;entryX=1;entryY=0.5;entryDx=0;entryDy=0;fontColor=#000000;" edge="1" parent="1" target="HsaPHBdeyG-jnKCgwa2D-9">
          <mxGeometry relative="1" as="geometry">
            <mxPoint x="290" y="270" as="sourcePoint" />
          </mxGeometry>
        </mxCell>
        <mxCell id="HsaPHBdeyG-jnKCgwa2D-9" value="&lt;span style=&quot;background-color: initial; font-size: 14px;&quot;&gt;DENSE RANK()&lt;/span&gt;" style="rounded=1;whiteSpace=wrap;html=1;glass=1;fillColor=#ffe6cc;strokeColor=none;fontSize=14;fontColor=#000000;" vertex="1" parent="1">
          <mxGeometry x="150" y="260" width="120" height="20" as="geometry" />
        </mxCell>
        <mxCell id="HsaPHBdeyG-jnKCgwa2D-13" style="edgeStyle=orthogonalEdgeStyle;rounded=0;orthogonalLoop=1;jettySize=auto;html=1;exitX=0.75;exitY=1;exitDx=0;exitDy=0;dashed=1;flowAnimation=1;endArrow=none;endFill=0;fillColor=#ffe6cc;strokeColor=#d79b00;strokeWidth=2;fontColor=#000000;" edge="1" parent="1">
          <mxGeometry relative="1" as="geometry">
            <mxPoint x="290" y="270" as="targetPoint" />
            <mxPoint x="290" y="70" as="sourcePoint" />
          </mxGeometry>
        </mxCell>
        <mxCell id="HsaPHBdeyG-jnKCgwa2D-11" value="窗口函数" style="rounded=1;whiteSpace=wrap;html=1;fillColor=#ffe6cc;strokeColor=#d79b00;fontStyle=1;fontSize=16;fontColor=#000000;" vertex="1" parent="1">
          <mxGeometry x="150" y="30" width="160" height="40" as="geometry" />
        </mxCell>
        <mxCell id="HsaPHBdeyG-jnKCgwa2D-15" style="edgeStyle=orthogonalEdgeStyle;rounded=0;orthogonalLoop=1;jettySize=auto;html=1;exitX=1;exitY=0.5;exitDx=0;exitDy=0;endArrow=none;endFill=0;fillColor=#ffe6cc;strokeColor=#d79b00;strokeWidth=2;flowAnimation=1;entryX=1;entryY=0.5;entryDx=0;entryDy=0;fontColor=#000000;" edge="1" parent="1">
          <mxGeometry relative="1" as="geometry">
            <mxPoint x="270" y="239.5" as="targetPoint" />
            <mxPoint x="290" y="239.5" as="sourcePoint" />
          </mxGeometry>
        </mxCell>
        <mxCell id="HsaPHBdeyG-jnKCgwa2D-18" style="edgeStyle=orthogonalEdgeStyle;rounded=0;orthogonalLoop=1;jettySize=auto;html=1;exitX=1;exitY=0.5;exitDx=0;exitDy=0;endArrow=none;endFill=0;fillColor=#ffe6cc;strokeColor=#d79b00;strokeWidth=2;flowAnimation=1;entryX=1;entryY=0.5;entryDx=0;entryDy=0;fontColor=#000000;" edge="1" parent="1">
          <mxGeometry relative="1" as="geometry">
            <mxPoint x="270" y="209.5" as="targetPoint" />
            <mxPoint x="290" y="209.5" as="sourcePoint" />
          </mxGeometry>
        </mxCell>
        <mxCell id="HsaPHBdeyG-jnKCgwa2D-19" style="edgeStyle=orthogonalEdgeStyle;rounded=0;orthogonalLoop=1;jettySize=auto;html=1;exitX=1;exitY=0.5;exitDx=0;exitDy=0;endArrow=none;endFill=0;fillColor=#ffe6cc;strokeColor=#d79b00;strokeWidth=2;flowAnimation=1;entryX=1;entryY=0.5;entryDx=0;entryDy=0;fontColor=#000000;" edge="1" parent="1">
          <mxGeometry relative="1" as="geometry">
            <mxPoint x="270" y="179.5" as="targetPoint" />
            <mxPoint x="290" y="179.5" as="sourcePoint" />
          </mxGeometry>
        </mxCell>
        <mxCell id="HsaPHBdeyG-jnKCgwa2D-23" value="" style="group;fontColor=#000000;" vertex="1" connectable="0" parent="1">
          <mxGeometry x="270" y="90" width="20" height="60" as="geometry" />
        </mxCell>
        <mxCell id="HsaPHBdeyG-jnKCgwa2D-20" style="edgeStyle=orthogonalEdgeStyle;rounded=0;orthogonalLoop=1;jettySize=auto;html=1;exitX=1;exitY=0.5;exitDx=0;exitDy=0;endArrow=none;endFill=0;fillColor=#ffe6cc;strokeColor=#d79b00;strokeWidth=2;flowAnimation=1;entryX=1;entryY=0.5;entryDx=0;entryDy=0;fontColor=#000000;" edge="1" parent="HsaPHBdeyG-jnKCgwa2D-23">
          <mxGeometry relative="1" as="geometry">
            <mxPoint y="60" as="targetPoint" />
            <mxPoint x="20" y="60" as="sourcePoint" />
          </mxGeometry>
        </mxCell>
        <mxCell id="HsaPHBdeyG-jnKCgwa2D-21" style="edgeStyle=orthogonalEdgeStyle;rounded=0;orthogonalLoop=1;jettySize=auto;html=1;exitX=1;exitY=0.5;exitDx=0;exitDy=0;endArrow=none;endFill=0;fillColor=#ffe6cc;strokeColor=#d79b00;strokeWidth=2;flowAnimation=1;entryX=1;entryY=0.5;entryDx=0;entryDy=0;fontColor=#000000;" edge="1" parent="HsaPHBdeyG-jnKCgwa2D-23">
          <mxGeometry relative="1" as="geometry">
            <mxPoint y="30" as="targetPoint" />
            <mxPoint x="20" y="30" as="sourcePoint" />
          </mxGeometry>
        </mxCell>
        <mxCell id="HsaPHBdeyG-jnKCgwa2D-22" style="edgeStyle=orthogonalEdgeStyle;rounded=0;orthogonalLoop=1;jettySize=auto;html=1;exitX=1;exitY=0.5;exitDx=0;exitDy=0;endArrow=none;endFill=0;fillColor=#ffe6cc;strokeColor=#d79b00;strokeWidth=2;flowAnimation=1;entryX=1;entryY=0.5;entryDx=0;entryDy=0;fontColor=#000000;" edge="1" parent="HsaPHBdeyG-jnKCgwa2D-23">
          <mxGeometry relative="1" as="geometry">
            <mxPoint as="targetPoint" />
            <mxPoint x="20" as="sourcePoint" />
          </mxGeometry>
        </mxCell>
        <mxCell id="HsaPHBdeyG-jnKCgwa2D-24" value="Where 条件" style="rounded=1;whiteSpace=wrap;html=1;fillColor=#f8cecc;strokeColor=#b85450;fontStyle=1;fontSize=16;fontColor=#000000;" vertex="1" parent="1">
          <mxGeometry x="600" y="30" width="160" height="40" as="geometry" />
        </mxCell>
        <mxCell id="HsaPHBdeyG-jnKCgwa2D-27" value="&amp;gt;,&amp;lt;,&amp;lt;&amp;gt;,&amp;lt;=,&amp;gt;=,=" style="rounded=1;whiteSpace=wrap;html=1;glass=1;fillColor=#f8cecc;strokeColor=none;fontSize=14;fontColor=#000000;" vertex="1" parent="1">
          <mxGeometry x="640" y="80" width="120" height="20" as="geometry" />
        </mxCell>
        <mxCell id="HsaPHBdeyG-jnKCgwa2D-28" value="AND,OR,NOT" style="rounded=1;whiteSpace=wrap;html=1;glass=1;fillColor=#f8cecc;strokeColor=none;fontSize=14;fontColor=#000000;" vertex="1" parent="1">
          <mxGeometry x="640" y="110" width="120" height="20" as="geometry" />
        </mxCell>
        <mxCell id="HsaPHBdeyG-jnKCgwa2D-29" value="BETWEEN" style="rounded=1;whiteSpace=wrap;html=1;glass=1;fillColor=#f8cecc;strokeColor=none;fontSize=14;fontColor=#000000;" vertex="1" parent="1">
          <mxGeometry x="640" y="140" width="120" height="20" as="geometry" />
        </mxCell>
        <mxCell id="HsaPHBdeyG-jnKCgwa2D-30" value="LIKE" style="rounded=1;whiteSpace=wrap;html=1;glass=1;fillColor=#f8cecc;strokeColor=none;fontSize=14;fontColor=#000000;" vertex="1" parent="1">
          <mxGeometry x="640" y="170" width="120" height="20" as="geometry" />
        </mxCell>
        <mxCell id="HsaPHBdeyG-jnKCgwa2D-31" value="IN" style="rounded=1;whiteSpace=wrap;html=1;glass=1;fillColor=#f8cecc;strokeColor=none;fontSize=14;fontColor=#000000;" vertex="1" parent="1">
          <mxGeometry x="640" y="200" width="120" height="20" as="geometry" />
        </mxCell>
        <mxCell id="HsaPHBdeyG-jnKCgwa2D-32" value="ANY" style="rounded=1;whiteSpace=wrap;html=1;glass=1;fillColor=#f8cecc;strokeColor=none;fontSize=14;fontColor=#000000;" vertex="1" parent="1">
          <mxGeometry x="640" y="230" width="120" height="20" as="geometry" />
        </mxCell>
        <mxCell id="HsaPHBdeyG-jnKCgwa2D-33" value="ALL" style="rounded=1;whiteSpace=wrap;html=1;glass=1;fillColor=#f8cecc;strokeColor=none;fontSize=14;fontColor=#000000;" vertex="1" parent="1">
          <mxGeometry x="640" y="260" width="120" height="20" as="geometry" />
        </mxCell>
        <mxCell id="HsaPHBdeyG-jnKCgwa2D-34" value="EXISTS" style="rounded=1;whiteSpace=wrap;html=1;glass=1;fillColor=#f8cecc;strokeColor=none;fontSize=14;fontColor=#000000;" vertex="1" parent="1">
          <mxGeometry x="640" y="290" width="120" height="20" as="geometry" />
        </mxCell>
        <mxCell id="HsaPHBdeyG-jnKCgwa2D-35" style="edgeStyle=orthogonalEdgeStyle;rounded=0;orthogonalLoop=1;jettySize=auto;html=1;exitX=0.75;exitY=1;exitDx=0;exitDy=0;dashed=1;flowAnimation=1;endArrow=none;endFill=0;fillColor=#f8cecc;strokeColor=#b85450;strokeWidth=2;fontColor=#000000;" edge="1" parent="1">
          <mxGeometry relative="1" as="geometry">
            <mxPoint x="619" y="300" as="targetPoint" />
            <mxPoint x="619" y="70" as="sourcePoint" />
          </mxGeometry>
        </mxCell>
        <mxCell id="HsaPHBdeyG-jnKCgwa2D-41" value="" style="group;fontColor=#000000;" vertex="1" connectable="0" parent="1">
          <mxGeometry x="620" y="90" width="20" height="29.5" as="geometry" />
        </mxCell>
        <mxCell id="HsaPHBdeyG-jnKCgwa2D-36" style="edgeStyle=orthogonalEdgeStyle;rounded=0;orthogonalLoop=1;jettySize=auto;html=1;exitX=1;exitY=0.5;exitDx=0;exitDy=0;endArrow=none;endFill=0;fillColor=#f8cecc;strokeColor=#b85450;strokeWidth=2;flowAnimation=1;entryX=1;entryY=0.5;entryDx=0;entryDy=0;fontColor=#000000;" edge="1" parent="HsaPHBdeyG-jnKCgwa2D-41">
          <mxGeometry relative="1" as="geometry">
            <mxPoint x="20" as="targetPoint" />
            <mxPoint as="sourcePoint" />
          </mxGeometry>
        </mxCell>
        <mxCell id="HsaPHBdeyG-jnKCgwa2D-37" style="edgeStyle=orthogonalEdgeStyle;rounded=0;orthogonalLoop=1;jettySize=auto;html=1;exitX=1;exitY=0.5;exitDx=0;exitDy=0;endArrow=none;endFill=0;fillColor=#f8cecc;strokeColor=#b85450;strokeWidth=2;flowAnimation=1;entryX=1;entryY=0.5;entryDx=0;entryDy=0;fontColor=#000000;" edge="1" parent="HsaPHBdeyG-jnKCgwa2D-41">
          <mxGeometry relative="1" as="geometry">
            <mxPoint x="20" y="29.5" as="targetPoint" />
            <mxPoint y="29.5" as="sourcePoint" />
          </mxGeometry>
        </mxCell>
        <mxCell id="HsaPHBdeyG-jnKCgwa2D-42" value="" style="group;fontColor=#000000;" vertex="1" connectable="0" parent="1">
          <mxGeometry x="620" y="150" width="20" height="29.5" as="geometry" />
        </mxCell>
        <mxCell id="HsaPHBdeyG-jnKCgwa2D-43" style="edgeStyle=orthogonalEdgeStyle;rounded=0;orthogonalLoop=1;jettySize=auto;html=1;exitX=1;exitY=0.5;exitDx=0;exitDy=0;endArrow=none;endFill=0;fillColor=#f8cecc;strokeColor=#b85450;strokeWidth=2;flowAnimation=1;entryX=1;entryY=0.5;entryDx=0;entryDy=0;fontColor=#000000;" edge="1" parent="HsaPHBdeyG-jnKCgwa2D-42">
          <mxGeometry relative="1" as="geometry">
            <mxPoint x="20" as="targetPoint" />
            <mxPoint as="sourcePoint" />
          </mxGeometry>
        </mxCell>
        <mxCell id="HsaPHBdeyG-jnKCgwa2D-44" style="edgeStyle=orthogonalEdgeStyle;rounded=0;orthogonalLoop=1;jettySize=auto;html=1;exitX=1;exitY=0.5;exitDx=0;exitDy=0;endArrow=none;endFill=0;fillColor=#f8cecc;strokeColor=#b85450;strokeWidth=2;flowAnimation=1;entryX=1;entryY=0.5;entryDx=0;entryDy=0;fontColor=#000000;" edge="1" parent="HsaPHBdeyG-jnKCgwa2D-42">
          <mxGeometry relative="1" as="geometry">
            <mxPoint x="20" y="29.5" as="targetPoint" />
            <mxPoint y="29.5" as="sourcePoint" />
          </mxGeometry>
        </mxCell>
        <mxCell id="HsaPHBdeyG-jnKCgwa2D-45" value="" style="group;fontColor=#000000;" vertex="1" connectable="0" parent="1">
          <mxGeometry x="620" y="210" width="20" height="29.5" as="geometry" />
        </mxCell>
        <mxCell id="HsaPHBdeyG-jnKCgwa2D-46" style="edgeStyle=orthogonalEdgeStyle;rounded=0;orthogonalLoop=1;jettySize=auto;html=1;exitX=1;exitY=0.5;exitDx=0;exitDy=0;endArrow=none;endFill=0;fillColor=#f8cecc;strokeColor=#b85450;strokeWidth=2;flowAnimation=1;entryX=1;entryY=0.5;entryDx=0;entryDy=0;fontColor=#000000;" edge="1" parent="HsaPHBdeyG-jnKCgwa2D-45">
          <mxGeometry relative="1" as="geometry">
            <mxPoint x="20" as="targetPoint" />
            <mxPoint as="sourcePoint" />
          </mxGeometry>
        </mxCell>
        <mxCell id="HsaPHBdeyG-jnKCgwa2D-47" style="edgeStyle=orthogonalEdgeStyle;rounded=0;orthogonalLoop=1;jettySize=auto;html=1;exitX=1;exitY=0.5;exitDx=0;exitDy=0;endArrow=none;endFill=0;fillColor=#f8cecc;strokeColor=#b85450;strokeWidth=2;flowAnimation=1;entryX=1;entryY=0.5;entryDx=0;entryDy=0;fontColor=#000000;" edge="1" parent="HsaPHBdeyG-jnKCgwa2D-45">
          <mxGeometry relative="1" as="geometry">
            <mxPoint x="20" y="29.5" as="targetPoint" />
            <mxPoint y="29.5" as="sourcePoint" />
          </mxGeometry>
        </mxCell>
        <mxCell id="HsaPHBdeyG-jnKCgwa2D-48" value="" style="group;fontColor=#000000;" vertex="1" connectable="0" parent="1">
          <mxGeometry x="620" y="270" width="20" height="29.5" as="geometry" />
        </mxCell>
        <mxCell id="HsaPHBdeyG-jnKCgwa2D-49" style="edgeStyle=orthogonalEdgeStyle;rounded=0;orthogonalLoop=1;jettySize=auto;html=1;exitX=1;exitY=0.5;exitDx=0;exitDy=0;endArrow=none;endFill=0;fillColor=#f8cecc;strokeColor=#b85450;strokeWidth=2;flowAnimation=1;entryX=1;entryY=0.5;entryDx=0;entryDy=0;fontColor=#000000;" edge="1" parent="HsaPHBdeyG-jnKCgwa2D-48">
          <mxGeometry relative="1" as="geometry">
            <mxPoint x="20" as="targetPoint" />
            <mxPoint as="sourcePoint" />
          </mxGeometry>
        </mxCell>
        <mxCell id="HsaPHBdeyG-jnKCgwa2D-50" style="edgeStyle=orthogonalEdgeStyle;rounded=0;orthogonalLoop=1;jettySize=auto;html=1;exitX=1;exitY=0.5;exitDx=0;exitDy=0;endArrow=none;endFill=0;fillColor=#f8cecc;strokeColor=#b85450;strokeWidth=2;flowAnimation=1;entryX=1;entryY=0.5;entryDx=0;entryDy=0;fontColor=#000000;" edge="1" parent="HsaPHBdeyG-jnKCgwa2D-48">
          <mxGeometry relative="1" as="geometry">
            <mxPoint x="20" y="29.5" as="targetPoint" />
            <mxPoint y="29.5" as="sourcePoint" />
          </mxGeometry>
        </mxCell>
        <mxCell id="HsaPHBdeyG-jnKCgwa2D-51" value="聚合函数" style="rounded=1;whiteSpace=wrap;html=1;fillColor=#dae8fc;strokeColor=#6c8ebf;fontStyle=1;fontSize=16;fontColor=#000000;" vertex="1" parent="1">
          <mxGeometry x="430" y="170" width="160" height="40" as="geometry" />
        </mxCell>
        <mxCell id="HsaPHBdeyG-jnKCgwa2D-53" value="AVG()" style="rounded=1;whiteSpace=wrap;html=1;glass=1;fillColor=#dae8fc;strokeColor=none;fontSize=14;fontColor=#000000;" vertex="1" parent="1">
          <mxGeometry x="470" y="220" width="120" height="20" as="geometry" />
        </mxCell>
        <mxCell id="HsaPHBdeyG-jnKCgwa2D-54" value="SUM()" style="rounded=1;whiteSpace=wrap;html=1;glass=1;fillColor=#dae8fc;strokeColor=none;fontSize=14;fontColor=#000000;" vertex="1" parent="1">
          <mxGeometry x="470" y="250" width="120" height="20" as="geometry" />
        </mxCell>
        <mxCell id="HsaPHBdeyG-jnKCgwa2D-55" value="COUNT()" style="rounded=1;whiteSpace=wrap;html=1;glass=1;fillColor=#dae8fc;strokeColor=none;fontSize=14;fontColor=#000000;" vertex="1" parent="1">
          <mxGeometry x="470" y="280" width="120" height="20" as="geometry" />
        </mxCell>
        <mxCell id="HsaPHBdeyG-jnKCgwa2D-56" value="MIN()" style="rounded=1;whiteSpace=wrap;html=1;glass=1;fillColor=#dae8fc;strokeColor=none;fontSize=14;fontColor=#000000;" vertex="1" parent="1">
          <mxGeometry x="470" y="310" width="120" height="20" as="geometry" />
        </mxCell>
        <mxCell id="HsaPHBdeyG-jnKCgwa2D-57" value="MAX()" style="rounded=1;whiteSpace=wrap;html=1;glass=1;fillColor=#dae8fc;strokeColor=none;fontSize=14;fontColor=#000000;" vertex="1" parent="1">
          <mxGeometry x="470" y="340" width="120" height="20" as="geometry" />
        </mxCell>
        <mxCell id="HsaPHBdeyG-jnKCgwa2D-61" value="" style="group;fontColor=#000000;" vertex="1" connectable="0" parent="1">
          <mxGeometry x="450" y="230" width="20" height="29.5" as="geometry" />
        </mxCell>
        <mxCell id="HsaPHBdeyG-jnKCgwa2D-59" style="edgeStyle=orthogonalEdgeStyle;rounded=0;orthogonalLoop=1;jettySize=auto;html=1;exitX=1;exitY=0.5;exitDx=0;exitDy=0;endArrow=none;endFill=0;fillColor=#dae8fc;strokeColor=#6c8ebf;strokeWidth=2;flowAnimation=1;entryX=1;entryY=0.5;entryDx=0;entryDy=0;fontColor=#000000;" edge="1" parent="HsaPHBdeyG-jnKCgwa2D-61">
          <mxGeometry relative="1" as="geometry">
            <mxPoint x="20" as="targetPoint" />
            <mxPoint as="sourcePoint" />
          </mxGeometry>
        </mxCell>
        <mxCell id="HsaPHBdeyG-jnKCgwa2D-60" style="edgeStyle=orthogonalEdgeStyle;rounded=0;orthogonalLoop=1;jettySize=auto;html=1;exitX=1;exitY=0.5;exitDx=0;exitDy=0;endArrow=none;endFill=0;fillColor=#dae8fc;strokeColor=#6c8ebf;strokeWidth=2;flowAnimation=1;entryX=1;entryY=0.5;entryDx=0;entryDy=0;fontColor=#000000;" edge="1" parent="HsaPHBdeyG-jnKCgwa2D-61">
          <mxGeometry relative="1" as="geometry">
            <mxPoint x="20" y="29.5" as="targetPoint" />
            <mxPoint y="29.5" as="sourcePoint" />
          </mxGeometry>
        </mxCell>
        <mxCell id="HsaPHBdeyG-jnKCgwa2D-62" value="" style="group;fontColor=#000000;" vertex="1" connectable="0" parent="1">
          <mxGeometry x="450" y="290" width="20" height="29.5" as="geometry" />
        </mxCell>
        <mxCell id="HsaPHBdeyG-jnKCgwa2D-63" style="edgeStyle=orthogonalEdgeStyle;rounded=0;orthogonalLoop=1;jettySize=auto;html=1;exitX=1;exitY=0.5;exitDx=0;exitDy=0;endArrow=none;endFill=0;fillColor=#dae8fc;strokeColor=#6c8ebf;strokeWidth=2;flowAnimation=1;entryX=1;entryY=0.5;entryDx=0;entryDy=0;fontColor=#000000;" edge="1" parent="HsaPHBdeyG-jnKCgwa2D-62">
          <mxGeometry relative="1" as="geometry">
            <mxPoint x="20" as="targetPoint" />
            <mxPoint as="sourcePoint" />
          </mxGeometry>
        </mxCell>
        <mxCell id="HsaPHBdeyG-jnKCgwa2D-64" style="edgeStyle=orthogonalEdgeStyle;rounded=0;orthogonalLoop=1;jettySize=auto;html=1;exitX=1;exitY=0.5;exitDx=0;exitDy=0;endArrow=none;endFill=0;fillColor=#dae8fc;strokeColor=#6c8ebf;strokeWidth=2;flowAnimation=1;entryX=1;entryY=0.5;entryDx=0;entryDy=0;fontColor=#000000;" edge="1" parent="HsaPHBdeyG-jnKCgwa2D-62">
          <mxGeometry relative="1" as="geometry">
            <mxPoint x="20" y="29.5" as="targetPoint" />
            <mxPoint y="29.5" as="sourcePoint" />
          </mxGeometry>
        </mxCell>
        <mxCell id="HsaPHBdeyG-jnKCgwa2D-65" style="edgeStyle=orthogonalEdgeStyle;rounded=0;orthogonalLoop=1;jettySize=auto;html=1;exitX=1;exitY=0.5;exitDx=0;exitDy=0;endArrow=none;endFill=0;fillColor=#dae8fc;strokeColor=#6c8ebf;strokeWidth=2;flowAnimation=1;entryX=1;entryY=0.5;entryDx=0;entryDy=0;fontColor=#000000;" edge="1" parent="1">
          <mxGeometry relative="1" as="geometry">
            <mxPoint x="470" y="350" as="targetPoint" />
            <mxPoint x="450" y="350" as="sourcePoint" />
          </mxGeometry>
        </mxCell>
        <mxCell id="HsaPHBdeyG-jnKCgwa2D-66" style="edgeStyle=orthogonalEdgeStyle;rounded=0;orthogonalLoop=1;jettySize=auto;html=1;exitX=0.75;exitY=1;exitDx=0;exitDy=0;dashed=1;flowAnimation=1;endArrow=none;endFill=0;fillColor=#dae8fc;strokeColor=#6c8ebf;strokeWidth=2;fontColor=#000000;" edge="1" parent="1">
          <mxGeometry relative="1" as="geometry">
            <mxPoint x="450" y="350" as="targetPoint" />
            <mxPoint x="450" y="210" as="sourcePoint" />
          </mxGeometry>
        </mxCell>
        <mxCell id="HsaPHBdeyG-jnKCgwa2D-67" value="DML" style="rounded=1;whiteSpace=wrap;html=1;fillColor=#ffcd28;strokeColor=#d79b00;fontStyle=1;fontSize=16;gradientColor=#ffa500;" vertex="1" parent="1">
          <mxGeometry x="235" y="336" width="78" height="40" as="geometry" />
        </mxCell>
        <mxCell id="HsaPHBdeyG-jnKCgwa2D-71" style="edgeStyle=orthogonalEdgeStyle;rounded=0;orthogonalLoop=1;jettySize=auto;html=1;exitX=1;exitY=0.5;exitDx=0;exitDy=0;strokeWidth=2;endArrow=none;endFill=0;flowAnimation=1;fillColor=#d5e8d4;strokeColor=#82b366;fontColor=#000000;" edge="1" parent="1" source="HsaPHBdeyG-jnKCgwa2D-68" target="HsaPHBdeyG-jnKCgwa2D-70">
          <mxGeometry relative="1" as="geometry" />
        </mxCell>
        <mxCell id="HsaPHBdeyG-jnKCgwa2D-68" value="Alias&amp;nbsp;" style="rounded=1;whiteSpace=wrap;html=1;fillColor=#d5e8d4;strokeColor=#82b366;fontStyle=1;fontSize=16;fontColor=#000000;" vertex="1" parent="1">
          <mxGeometry x="483" y="380" width="130" height="40" as="geometry" />
        </mxCell>
        <mxCell id="HsaPHBdeyG-jnKCgwa2D-70" value="AS" style="rounded=1;whiteSpace=wrap;html=1;glass=1;fillColor=#d5e8d4;strokeColor=none;fontSize=14;fontColor=#000000;" vertex="1" parent="1">
          <mxGeometry x="650" y="390" width="60" height="20" as="geometry" />
        </mxCell>
        <mxCell id="HsaPHBdeyG-jnKCgwa2D-75" style="edgeStyle=orthogonalEdgeStyle;rounded=0;orthogonalLoop=1;jettySize=auto;html=1;exitX=1;exitY=0.25;exitDx=0;exitDy=0;entryX=0;entryY=0.5;entryDx=0;entryDy=0;strokeWidth=2;endArrow=none;endFill=0;flowAnimation=1;fillColor=#ffff88;strokeColor=#feff88;fontColor=#000000;" edge="1" parent="1" source="HsaPHBdeyG-jnKCgwa2D-72" target="HsaPHBdeyG-jnKCgwa2D-73">
          <mxGeometry relative="1" as="geometry" />
        </mxCell>
        <mxCell id="HsaPHBdeyG-jnKCgwa2D-72" value="Group BY" style="rounded=1;whiteSpace=wrap;html=1;fillColor=#ffff88;strokeColor=#36393d;fontStyle=1;fontSize=16;" vertex="1" parent="1">
          <mxGeometry x="483" y="440" width="130" height="40" as="geometry" />
        </mxCell>
        <mxCell id="HsaPHBdeyG-jnKCgwa2D-73" value="GROUP BY COLUMN" style="rounded=1;whiteSpace=wrap;html=1;glass=1;fillColor=#ffff88;strokeColor=#36393d;fontSize=14;" vertex="1" parent="1">
          <mxGeometry x="628" y="440" width="140" height="20" as="geometry" />
        </mxCell>
        <mxCell id="HsaPHBdeyG-jnKCgwa2D-120" value="" style="edgeStyle=orthogonalEdgeStyle;rounded=0;orthogonalLoop=1;jettySize=auto;html=1;" edge="1" parent="1" source="HsaPHBdeyG-jnKCgwa2D-74" target="HsaPHBdeyG-jnKCgwa2D-83">
          <mxGeometry relative="1" as="geometry" />
        </mxCell>
        <mxCell id="HsaPHBdeyG-jnKCgwa2D-74" value="HAVING" style="rounded=1;whiteSpace=wrap;html=1;glass=1;fillColor=#ffff88;strokeColor=#36393d;fontSize=14;" vertex="1" parent="1">
          <mxGeometry x="628" y="466" width="140" height="20" as="geometry" />
        </mxCell>
        <mxCell id="HsaPHBdeyG-jnKCgwa2D-78" style="edgeStyle=orthogonalEdgeStyle;rounded=0;orthogonalLoop=1;jettySize=auto;html=1;exitX=1;exitY=0.25;exitDx=0;exitDy=0;entryX=0;entryY=0.5;entryDx=0;entryDy=0;strokeWidth=2;endArrow=none;endFill=0;flowAnimation=1;fillColor=#ffff88;strokeColor=#feff88;fontColor=#000000;" edge="1" parent="1">
          <mxGeometry relative="1" as="geometry">
            <mxPoint x="613" y="472.5" as="sourcePoint" />
            <mxPoint x="643" y="472.5" as="targetPoint" />
          </mxGeometry>
        </mxCell>
        <mxCell id="HsaPHBdeyG-jnKCgwa2D-80" value="ORDER BY" style="rounded=1;whiteSpace=wrap;html=1;fillColor=#cdeb8b;strokeColor=#36393d;fontStyle=1;fontSize=16;" vertex="1" parent="1">
          <mxGeometry x="452" y="500.5" width="130" height="40" as="geometry" />
        </mxCell>
        <mxCell id="HsaPHBdeyG-jnKCgwa2D-83" value="ORDER BY COLUMN ASC" style="rounded=1;whiteSpace=wrap;html=1;glass=1;fillColor=#cdeb8b;strokeColor=#36393d;fontSize=14;" vertex="1" parent="1">
          <mxGeometry x="596" y="500.5" width="183" height="19.5" as="geometry" />
        </mxCell>
        <mxCell id="HsaPHBdeyG-jnKCgwa2D-86" value="" style="group" vertex="1" connectable="0" parent="1">
          <mxGeometry x="583" y="507" width="30" height="27" as="geometry" />
        </mxCell>
        <mxCell id="HsaPHBdeyG-jnKCgwa2D-85" style="edgeStyle=orthogonalEdgeStyle;rounded=0;orthogonalLoop=1;jettySize=auto;html=1;exitX=1;exitY=0.25;exitDx=0;exitDy=0;entryX=0;entryY=0.5;entryDx=0;entryDy=0;strokeWidth=2;endArrow=none;endFill=0;flowAnimation=1;fillColor=#ffff88;strokeColor=#cdeb8b;fontColor=#000000;" edge="1" parent="HsaPHBdeyG-jnKCgwa2D-86">
          <mxGeometry relative="1" as="geometry">
            <mxPoint y="27" as="sourcePoint" />
            <mxPoint x="30" y="27" as="targetPoint" />
          </mxGeometry>
        </mxCell>
        <mxCell id="HsaPHBdeyG-jnKCgwa2D-87" value="" style="group" vertex="1" connectable="0" parent="HsaPHBdeyG-jnKCgwa2D-86">
          <mxGeometry x="-2" y="-6.5" width="30" height="8.5" as="geometry" />
        </mxCell>
        <mxCell id="HsaPHBdeyG-jnKCgwa2D-88" style="edgeStyle=orthogonalEdgeStyle;rounded=0;orthogonalLoop=1;jettySize=auto;html=1;exitX=1;exitY=0.25;exitDx=0;exitDy=0;entryX=0;entryY=0.5;entryDx=0;entryDy=0;strokeWidth=2;endArrow=none;endFill=0;flowAnimation=1;fillColor=#ffff88;strokeColor=#cdeb8b;fontColor=#000000;" edge="1" parent="HsaPHBdeyG-jnKCgwa2D-87">
          <mxGeometry relative="1" as="geometry">
            <mxPoint y="8.5" as="sourcePoint" />
            <mxPoint x="30" y="8.5" as="targetPoint" />
          </mxGeometry>
        </mxCell>
        <mxCell id="HsaPHBdeyG-jnKCgwa2D-89" value="ORDER BY COLUMN DESC" style="rounded=1;whiteSpace=wrap;html=1;glass=1;fillColor=#cdeb8b;strokeColor=#36393d;fontSize=14;" vertex="1" parent="1">
          <mxGeometry x="596" y="529" width="184" height="20" as="geometry" />
        </mxCell>
        <mxCell id="HsaPHBdeyG-jnKCgwa2D-95" style="edgeStyle=orthogonalEdgeStyle;rounded=0;orthogonalLoop=1;jettySize=auto;html=1;exitX=0;exitY=0.5;exitDx=0;exitDy=0;entryX=1;entryY=0.5;entryDx=0;entryDy=0;fillColor=#e6d0de;gradientColor=#d5739d;strokeColor=#996185;strokeWidth=2;flowAnimation=1;endArrow=none;endFill=0;" edge="1" parent="1" source="HsaPHBdeyG-jnKCgwa2D-90" target="HsaPHBdeyG-jnKCgwa2D-94">
          <mxGeometry relative="1" as="geometry" />
        </mxCell>
        <mxCell id="HsaPHBdeyG-jnKCgwa2D-97" style="edgeStyle=orthogonalEdgeStyle;rounded=0;orthogonalLoop=1;jettySize=auto;html=1;exitX=1;exitY=0.5;exitDx=0;exitDy=0;entryX=0;entryY=0.5;entryDx=0;entryDy=0;fillColor=#e6d0de;gradientColor=#d5739d;strokeColor=#996185;endArrow=none;endFill=0;strokeWidth=2;flowAnimation=1;" edge="1" parent="1" source="HsaPHBdeyG-jnKCgwa2D-90" target="HsaPHBdeyG-jnKCgwa2D-96">
          <mxGeometry relative="1" as="geometry" />
        </mxCell>
        <mxCell id="HsaPHBdeyG-jnKCgwa2D-100" style="edgeStyle=orthogonalEdgeStyle;rounded=0;orthogonalLoop=1;jettySize=auto;html=1;exitX=0.25;exitY=1;exitDx=0;exitDy=0;fillColor=#e6d0de;gradientColor=#d5739d;strokeColor=#996185;strokeWidth=2;flowAnimation=1;endArrow=none;endFill=0;" edge="1" parent="1" source="HsaPHBdeyG-jnKCgwa2D-90">
          <mxGeometry relative="1" as="geometry">
            <mxPoint x="540" y="653" as="targetPoint" />
            <Array as="points">
              <mxPoint x="565" y="617" />
              <mxPoint x="565" y="653" />
            </Array>
          </mxGeometry>
        </mxCell>
        <mxCell id="HsaPHBdeyG-jnKCgwa2D-90" value="JOIN" style="rounded=1;whiteSpace=wrap;html=1;fillColor=#e6d0de;strokeColor=#996185;fontStyle=1;fontSize=16;gradientColor=#d5739d;" vertex="1" parent="1">
          <mxGeometry x="518" y="577" width="130" height="40" as="geometry" />
        </mxCell>
        <mxCell id="HsaPHBdeyG-jnKCgwa2D-94" value="LEFT JOIN" style="rounded=1;whiteSpace=wrap;html=1;glass=1;fillColor=#e6d0de;strokeColor=#996185;fontSize=14;gradientColor=#d5739d;" vertex="1" parent="1">
          <mxGeometry x="414" y="585" width="82" height="20" as="geometry" />
        </mxCell>
        <mxCell id="HsaPHBdeyG-jnKCgwa2D-96" value="RIGHT JOIN" style="rounded=1;whiteSpace=wrap;html=1;glass=1;fillColor=#e6d0de;strokeColor=#996185;fontSize=14;gradientColor=#d5739d;" vertex="1" parent="1">
          <mxGeometry x="670" y="585" width="82" height="20" as="geometry" />
        </mxCell>
        <mxCell id="HsaPHBdeyG-jnKCgwa2D-99" value="INNER JOIN" style="rounded=1;whiteSpace=wrap;html=1;glass=1;fillColor=#e6d0de;strokeColor=#996185;fontSize=14;gradientColor=#d5739d;" vertex="1" parent="1">
          <mxGeometry x="455" y="645" width="82" height="20" as="geometry" />
        </mxCell>
        <mxCell id="HsaPHBdeyG-jnKCgwa2D-101" value="FULL JOIN" style="rounded=1;whiteSpace=wrap;html=1;glass=1;fillColor=#e6d0de;strokeColor=#996185;fontSize=14;gradientColor=#d5739d;" vertex="1" parent="1">
          <mxGeometry x="616" y="645" width="82" height="20" as="geometry" />
        </mxCell>
        <mxCell id="HsaPHBdeyG-jnKCgwa2D-102" style="edgeStyle=orthogonalEdgeStyle;rounded=0;orthogonalLoop=1;jettySize=auto;html=1;exitX=0.25;exitY=1;exitDx=0;exitDy=0;fillColor=#e6d0de;gradientColor=#d5739d;strokeColor=#996185;strokeWidth=2;flowAnimation=1;endArrow=none;endFill=0;" edge="1" parent="1">
          <mxGeometry relative="1" as="geometry">
            <mxPoint x="613" y="653" as="targetPoint" />
            <mxPoint x="602" y="617" as="sourcePoint" />
            <Array as="points">
              <mxPoint x="588" y="617" />
              <mxPoint x="588" y="653" />
            </Array>
          </mxGeometry>
        </mxCell>
        <mxCell id="HsaPHBdeyG-jnKCgwa2D-104" value="SELECT" style="rounded=1;whiteSpace=wrap;html=1;fillColor=#ffcd28;strokeColor=#d79b00;fontStyle=1;fontSize=16;gradientColor=#ffa500;" vertex="1" parent="1">
          <mxGeometry x="150" y="298" width="78" height="24.5" as="geometry" />
        </mxCell>
        <mxCell id="HsaPHBdeyG-jnKCgwa2D-106" value="INSERT" style="rounded=1;whiteSpace=wrap;html=1;fillColor=#ffcd28;strokeColor=#d79b00;fontStyle=1;fontSize=16;gradientColor=#ffa500;" vertex="1" parent="1">
          <mxGeometry x="150" y="330" width="78" height="24.5" as="geometry" />
        </mxCell>
        <mxCell id="HsaPHBdeyG-jnKCgwa2D-108" value="UPDATE" style="rounded=1;whiteSpace=wrap;html=1;fillColor=#ffcd28;strokeColor=#d79b00;fontStyle=1;fontSize=16;gradientColor=#ffa500;" vertex="1" parent="1">
          <mxGeometry x="150" y="362.5" width="78" height="24.5" as="geometry" />
        </mxCell>
        <mxCell id="HsaPHBdeyG-jnKCgwa2D-109" value="DELETE" style="rounded=1;whiteSpace=wrap;html=1;fillColor=#ffcd28;strokeColor=#d79b00;fontStyle=1;fontSize=16;gradientColor=#ffa500;" vertex="1" parent="1">
          <mxGeometry x="150" y="394" width="78" height="24.5" as="geometry" />
        </mxCell>
        <mxCell id="HsaPHBdeyG-jnKCgwa2D-114" value="DCL" style="rounded=1;whiteSpace=wrap;html=1;fillColor=#b0e3e6;strokeColor=#0e8088;fontStyle=1;fontSize=16;" vertex="1" parent="1">
          <mxGeometry x="258" y="504" width="78" height="40" as="geometry" />
        </mxCell>
        <mxCell id="HsaPHBdeyG-jnKCgwa2D-116" value="GRANT" style="rounded=1;whiteSpace=wrap;html=1;fillColor=#b0e3e6;strokeColor=#0e8088;fontStyle=1;fontSize=16;" vertex="1" parent="1">
          <mxGeometry x="150" y="466" width="78" height="24.5" as="geometry" />
        </mxCell>
        <mxCell id="HsaPHBdeyG-jnKCgwa2D-117" value="REVOKE" style="rounded=1;whiteSpace=wrap;html=1;fillColor=#b0e3e6;strokeColor=#0e8088;fontStyle=1;fontSize=16;" vertex="1" parent="1">
          <mxGeometry x="150" y="498" width="78" height="24.5" as="geometry" />
        </mxCell>
        <mxCell id="HsaPHBdeyG-jnKCgwa2D-121" value="CIMMIT" style="rounded=1;whiteSpace=wrap;html=1;fillColor=#b0e3e6;strokeColor=#0e8088;fontStyle=1;fontSize=16;" vertex="1" parent="1">
          <mxGeometry x="150" y="530.25" width="78" height="24.5" as="geometry" />
        </mxCell>
        <mxCell id="HsaPHBdeyG-jnKCgwa2D-122" value="ROLLBACK" style="rounded=1;whiteSpace=wrap;html=1;fillColor=#b0e3e6;strokeColor=#0e8088;fontStyle=1;fontSize=16;" vertex="1" parent="1">
          <mxGeometry x="150" y="562.25" width="102" height="24.5" as="geometry" />
        </mxCell>
        <mxCell id="HsaPHBdeyG-jnKCgwa2D-123" value="SAVEPOINT" style="rounded=1;whiteSpace=wrap;html=1;fillColor=#b0e3e6;strokeColor=#0e8088;fontStyle=1;fontSize=16;" vertex="1" parent="1">
          <mxGeometry x="150" y="595.25" width="102" height="24.5" as="geometry" />
        </mxCell>
        <mxCell id="HsaPHBdeyG-jnKCgwa2D-160" style="edgeStyle=orthogonalEdgeStyle;rounded=0;orthogonalLoop=1;jettySize=auto;html=1;exitX=0;exitY=0.5;exitDx=0;exitDy=0;entryX=0;entryY=0.5;entryDx=0;entryDy=0;endArrow=none;endFill=0;fillColor=#fff2cc;gradientColor=#ffd966;strokeColor=#d6b656;strokeWidth=2;flowAnimation=1;" edge="1" parent="1" source="HsaPHBdeyG-jnKCgwa2D-124" target="HsaPHBdeyG-jnKCgwa2D-158">
          <mxGeometry relative="1" as="geometry" />
        </mxCell>
        <mxCell id="HsaPHBdeyG-jnKCgwa2D-124" value="VIEW" style="rounded=1;whiteSpace=wrap;html=1;fillColor=#fff2cc;strokeColor=#d6b656;fontStyle=1;fontSize=16;gradientColor=#ffd966;" vertex="1" parent="1">
          <mxGeometry x="180" y="685" width="94" height="40" as="geometry" />
        </mxCell>
        <mxCell id="HsaPHBdeyG-jnKCgwa2D-128" style="edgeStyle=orthogonalEdgeStyle;rounded=0;orthogonalLoop=1;jettySize=auto;html=1;exitX=0;exitY=0.5;exitDx=0;exitDy=0;entryX=1;entryY=0.5;entryDx=0;entryDy=0;fillColor=#fff2cc;gradientColor=#ffd966;strokeColor=#d6b656;strokeWidth=2;flowAnimation=1;endArrow=none;endFill=0;" edge="1" parent="1" source="HsaPHBdeyG-jnKCgwa2D-125" target="HsaPHBdeyG-jnKCgwa2D-124">
          <mxGeometry relative="1" as="geometry" />
        </mxCell>
        <mxCell id="HsaPHBdeyG-jnKCgwa2D-126" value="TRUNCATE" style="rounded=1;whiteSpace=wrap;html=1;fillColor=#fff2cc;strokeColor=#d6b656;fontStyle=1;fontSize=16;gradientColor=#ffd966;" vertex="1" parent="1">
          <mxGeometry x="473" y="685" width="94" height="40" as="geometry" />
        </mxCell>
        <mxCell id="HsaPHBdeyG-jnKCgwa2D-127" value="ALTER" style="rounded=1;whiteSpace=wrap;html=1;fillColor=#fff2cc;strokeColor=#d6b656;fontStyle=1;fontSize=16;gradientColor=#ffd966;" vertex="1" parent="1">
          <mxGeometry x="620" y="685" width="94" height="40" as="geometry" />
        </mxCell>
        <mxCell id="HsaPHBdeyG-jnKCgwa2D-125" value="DROP" style="rounded=1;whiteSpace=wrap;html=1;fillColor=#fff2cc;strokeColor=#d6b656;fontStyle=1;fontSize=16;gradientColor=#ffd966;" vertex="1" parent="1">
          <mxGeometry x="327" y="685" width="94" height="40" as="geometry" />
        </mxCell>
        <mxCell id="HsaPHBdeyG-jnKCgwa2D-133" style="edgeStyle=orthogonalEdgeStyle;rounded=0;orthogonalLoop=1;jettySize=auto;html=1;exitX=0;exitY=0.5;exitDx=0;exitDy=0;entryX=1;entryY=0.5;entryDx=0;entryDy=0;fillColor=#fff2cc;gradientColor=#ffd966;strokeColor=#d6b656;strokeWidth=2;flowAnimation=1;endArrow=none;endFill=0;" edge="1" parent="1">
          <mxGeometry relative="1" as="geometry">
            <mxPoint x="420" y="704.5" as="sourcePoint" />
            <mxPoint x="473" y="704.5" as="targetPoint" />
          </mxGeometry>
        </mxCell>
        <mxCell id="HsaPHBdeyG-jnKCgwa2D-134" style="edgeStyle=orthogonalEdgeStyle;rounded=0;orthogonalLoop=1;jettySize=auto;html=1;exitX=0;exitY=0.5;exitDx=0;exitDy=0;entryX=1;entryY=0.5;entryDx=0;entryDy=0;fillColor=#fff2cc;gradientColor=#ffd966;strokeColor=#d6b656;strokeWidth=2;flowAnimation=1;endArrow=none;endFill=0;" edge="1" parent="1">
          <mxGeometry relative="1" as="geometry">
            <mxPoint x="567" y="704.5" as="sourcePoint" />
            <mxPoint x="620" y="704.5" as="targetPoint" />
          </mxGeometry>
        </mxCell>
        <mxCell id="HsaPHBdeyG-jnKCgwa2D-157" style="edgeStyle=orthogonalEdgeStyle;rounded=0;orthogonalLoop=1;jettySize=auto;html=1;exitX=0;exitY=0.25;exitDx=0;exitDy=0;" edge="1" parent="1">
          <mxGeometry relative="1" as="geometry">
            <mxPoint x="173" y="732" as="targetPoint" />
            <mxPoint x="218" y="732" as="sourcePoint" />
            <Array as="points">
              <mxPoint x="196" y="746" />
              <mxPoint x="173" y="746" />
            </Array>
          </mxGeometry>
        </mxCell>
        <mxCell id="HsaPHBdeyG-jnKCgwa2D-158" value="&lt;font style=&quot;font-size: 16px;&quot; color=&quot;#ffffff&quot;&gt;DataBase&lt;/font&gt;" style="text;strokeColor=none;fillColor=none;align=left;verticalAlign=middle;spacingLeft=4;spacingRight=4;overflow=hidden;points=[[0,0.5],[1,0.5]];portConstraint=eastwest;rotatable=0;whiteSpace=wrap;html=1;" vertex="1" parent="1">
          <mxGeometry x="203" y="734" width="80" height="30" as="geometry" />
        </mxCell>
        <mxCell id="HsaPHBdeyG-jnKCgwa2D-159" value="&lt;font style=&quot;font-size: 16px;&quot; color=&quot;#ffffff&quot;&gt;Table&lt;/font&gt;" style="text;strokeColor=none;fillColor=none;align=left;verticalAlign=middle;spacingLeft=4;spacingRight=4;overflow=hidden;points=[[0,0.5],[1,0.5]];portConstraint=eastwest;rotatable=0;whiteSpace=wrap;html=1;" vertex="1" parent="1">
          <mxGeometry x="203" y="764" width="80" height="30" as="geometry" />
        </mxCell>
        <mxCell id="HsaPHBdeyG-jnKCgwa2D-161" style="edgeStyle=orthogonalEdgeStyle;rounded=0;orthogonalLoop=1;jettySize=auto;html=1;exitX=0;exitY=0.5;exitDx=0;exitDy=0;entryX=0;entryY=0.5;entryDx=0;entryDy=0;endArrow=none;endFill=0;fillColor=#fff2cc;gradientColor=#ffd966;strokeColor=#d6b656;strokeWidth=2;flowAnimation=1;" edge="1" parent="1" target="HsaPHBdeyG-jnKCgwa2D-159">
          <mxGeometry relative="1" as="geometry">
            <mxPoint x="160" y="705" as="sourcePoint" />
            <mxPoint x="183" y="749" as="targetPoint" />
          </mxGeometry>
        </mxCell>
        <mxCell id="HsaPHBdeyG-jnKCgwa2D-162" style="edgeStyle=orthogonalEdgeStyle;rounded=0;orthogonalLoop=1;jettySize=auto;html=1;exitX=0;exitY=0.5;exitDx=0;exitDy=0;entryX=0;entryY=0.5;entryDx=0;entryDy=0;endArrow=none;endFill=0;fillColor=#fff2cc;gradientColor=#ffd966;strokeColor=#d6b656;strokeWidth=2;flowAnimation=1;" edge="1" parent="1" target="HsaPHBdeyG-jnKCgwa2D-163">
          <mxGeometry relative="1" as="geometry">
            <mxPoint x="327" y="704.5" as="sourcePoint" />
            <Array as="points">
              <mxPoint x="307" y="705" />
              <mxPoint x="307" y="749" />
            </Array>
          </mxGeometry>
        </mxCell>
        <mxCell id="HsaPHBdeyG-jnKCgwa2D-163" value="&lt;font style=&quot;font-size: 16px;&quot; color=&quot;#ffffff&quot;&gt;DataBase&lt;/font&gt;" style="text;strokeColor=none;fillColor=none;align=left;verticalAlign=middle;spacingLeft=4;spacingRight=4;overflow=hidden;points=[[0,0.5],[1,0.5]];portConstraint=eastwest;rotatable=0;whiteSpace=wrap;html=1;" vertex="1" parent="1">
          <mxGeometry x="350" y="733.5" width="80" height="30" as="geometry" />
        </mxCell>
        <mxCell id="HsaPHBdeyG-jnKCgwa2D-164" value="&lt;font style=&quot;font-size: 16px;&quot; color=&quot;#ffffff&quot;&gt;Table&lt;/font&gt;" style="text;strokeColor=none;fillColor=none;align=left;verticalAlign=middle;spacingLeft=4;spacingRight=4;overflow=hidden;points=[[0,0.5],[1,0.5]];portConstraint=eastwest;rotatable=0;whiteSpace=wrap;html=1;" vertex="1" parent="1">
          <mxGeometry x="350" y="763.5" width="80" height="30" as="geometry" />
        </mxCell>
        <mxCell id="HsaPHBdeyG-jnKCgwa2D-165" style="edgeStyle=orthogonalEdgeStyle;rounded=0;orthogonalLoop=1;jettySize=auto;html=1;exitX=0;exitY=0.5;exitDx=0;exitDy=0;entryX=0;entryY=0.5;entryDx=0;entryDy=0;endArrow=none;endFill=0;fillColor=#fff2cc;gradientColor=#ffd966;strokeColor=#d6b656;strokeWidth=2;flowAnimation=1;" edge="1" parent="1" target="HsaPHBdeyG-jnKCgwa2D-164">
          <mxGeometry relative="1" as="geometry">
            <mxPoint x="307" y="704.5" as="sourcePoint" />
            <mxPoint x="330" y="748.5" as="targetPoint" />
          </mxGeometry>
        </mxCell>
        <mxCell id="HsaPHBdeyG-jnKCgwa2D-166" style="edgeStyle=orthogonalEdgeStyle;rounded=0;orthogonalLoop=1;jettySize=auto;html=1;exitX=0;exitY=0.5;exitDx=0;exitDy=0;entryX=0;entryY=0.5;entryDx=0;entryDy=0;endArrow=none;endFill=0;fillColor=#fff2cc;gradientColor=#ffd966;strokeColor=#d6b656;strokeWidth=2;flowAnimation=1;" edge="1" parent="1" target="HsaPHBdeyG-jnKCgwa2D-167">
          <mxGeometry relative="1" as="geometry">
            <mxPoint x="470" y="705" as="sourcePoint" />
            <Array as="points">
              <mxPoint x="453" y="705" />
              <mxPoint x="453" y="749" />
            </Array>
          </mxGeometry>
        </mxCell>
        <mxCell id="HsaPHBdeyG-jnKCgwa2D-172" value="DDL" style="rounded=1;whiteSpace=wrap;html=1;fillColor=#fff2cc;strokeColor=#d6b656;fontStyle=1;fontSize=16;gradientColor=#ffd966;" vertex="1" parent="1">
          <mxGeometry x="330" y="570" width="78" height="40" as="geometry" />
        </mxCell>
        <mxCell id="HsaPHBdeyG-jnKCgwa2D-167" value="&lt;font style=&quot;font-size: 16px;&quot; color=&quot;#ffffff&quot;&gt;Table&lt;/font&gt;" style="text;strokeColor=none;fillColor=none;align=left;verticalAlign=middle;spacingLeft=4;spacingRight=4;overflow=hidden;points=[[0,0.5],[1,0.5]];portConstraint=eastwest;rotatable=0;whiteSpace=wrap;html=1;" vertex="1" parent="1">
          <mxGeometry x="493" y="734" width="80" height="30" as="geometry" />
        </mxCell>
        <mxCell id="HsaPHBdeyG-jnKCgwa2D-170" style="edgeStyle=orthogonalEdgeStyle;rounded=0;orthogonalLoop=1;jettySize=auto;html=1;exitX=0;exitY=0.5;exitDx=0;exitDy=0;entryX=0;entryY=0.5;entryDx=0;entryDy=0;endArrow=none;endFill=0;fillColor=#fff2cc;gradientColor=#ffd966;strokeColor=#d6b656;strokeWidth=2;flowAnimation=1;" edge="1" parent="1" target="HsaPHBdeyG-jnKCgwa2D-171">
          <mxGeometry relative="1" as="geometry">
            <mxPoint x="624" y="705" as="sourcePoint" />
            <Array as="points">
              <mxPoint x="607" y="705" />
              <mxPoint x="607" y="749" />
            </Array>
          </mxGeometry>
        </mxCell>
        <mxCell id="HsaPHBdeyG-jnKCgwa2D-171" value="&lt;font style=&quot;font-size: 16px;&quot; color=&quot;#ffffff&quot;&gt;Table&lt;/font&gt;" style="text;strokeColor=none;fillColor=none;align=left;verticalAlign=middle;spacingLeft=4;spacingRight=4;overflow=hidden;points=[[0,0.5],[1,0.5]];portConstraint=eastwest;rotatable=0;whiteSpace=wrap;html=1;" vertex="1" parent="1">
          <mxGeometry x="647" y="734" width="80" height="30" as="geometry" />
        </mxCell>
      </root>
    </mxGraphModel>
  </diagram>
</mxfile>
